<svg width="189" height="48" viewBox="0 0 189 48" fill="none" xmlns="http://www.w3.org/2000/svg">
<path d="M36.6094 47.7484C35.6704 47.6797 34.0884 47.5783 33.0938 47.523C29.5528 47.3263 27.3634 47.183 27.0672 47.1286C26.9019 47.0982 26.247 47.0353 25.6118 46.9888C24.9767 46.9423 24.2994 46.8686 24.1068 46.825C23.9141 46.7814 23.4628 46.723 23.1038 46.6952C21.9198 46.6035 20.8319 46.4267 19.9702 46.1861C19.6362 46.0928 19.3178 46.0447 19.2627 46.0792C19.2076 46.1137 19.1933 46.0914 19.2309 46.0297C19.2772 45.9537 18.9429 45.9035 18.196 45.8743C17.5893 45.8506 17.0258 45.8014 16.944 45.7652C16.8622 45.7289 16.7697 45.5294 16.7385 45.3218C16.6739 44.8926 16.5682 44.8265 15.6083 44.6154C15.2505 44.5368 14.6886 44.3709 14.3596 44.2469C14.0305 44.1228 13.6425 43.9935 13.4973 43.9595C13.0826 43.8624 13.0899 43.6239 13.5216 43.1704C13.9755 42.6935 14.3333 42.4949 15.0617 42.3157C15.5339 42.1995 16.1801 41.7178 16.1858 41.4777C16.1877 41.397 15.7549 41.2403 15.1385 41.0984C14.9734 41.0604 14.4322 40.9914 13.9358 40.945C13.4393 40.8985 12.7791 40.7825 12.4687 40.687C12.1236 40.581 11.4298 40.5006 10.6839 40.4802C9.35928 40.444 8.79283 40.2755 8.70922 39.893C8.6809 39.7634 8.43367 39.5583 8.08065 39.3716C7.76061 39.2023 7.52294 39.0242 7.5525 38.9757C7.58206 38.9272 7.54681 38.9079 7.47419 38.9329C7.148 39.0452 6.66232 38.7976 6.49035 38.4315C6.30293 38.0325 6.39119 37.6645 6.67249 37.6722C6.75349 37.6744 6.82098 37.6399 6.82248 37.5954C6.82399 37.5509 7.13054 37.5088 7.50374 37.5019C7.87694 37.495 8.19847 37.4431 8.21826 37.3865C8.23804 37.33 8.33827 37.286 8.44099 37.2888C8.5437 37.2916 8.65685 37.2462 8.69244 37.1878C8.72802 37.1294 8.80237 37.0828 8.85766 37.0844C8.91296 37.0858 8.93517 37.1249 8.90702 37.1711C8.87887 37.2173 8.98843 37.2568 9.15049 37.2589C9.32451 37.2612 9.44652 37.2049 9.44851 37.1213C9.4504 37.0436 9.49639 37.0112 9.55081 37.0493C9.60524 37.0875 9.65086 37.0725 9.6522 37.0161C9.65615 36.8497 9.39446 36.7817 8.93166 36.829C8.69354 36.8534 8.29644 36.8125 8.04922 36.7382C7.802 36.6639 7.53221 36.5871 7.44968 36.5676C7.36714 36.548 7.22064 36.4934 7.12411 36.4462C7.02758 36.3989 6.85824 36.383 6.7478 36.4108C6.49098 36.4754 6.40683 36.3262 6.60541 36.1583C6.68948 36.0873 6.75795 36.0715 6.75757 36.1233C6.75719 36.1751 6.79127 36.1698 6.8333 36.1116C6.96257 35.9326 7.36879 35.7372 7.36598 35.8554C7.36447 35.9152 7.41131 35.9655 7.46987 35.9671C7.52842 35.9687 7.55515 35.931 7.52925 35.8834C7.46246 35.7606 8.26967 35.7633 8.47185 35.8866C8.57983 35.9524 8.68164 35.9463 8.75706 35.8694C8.89248 35.7313 9.29771 35.6855 9.21736 35.8174C9.12373 35.971 9.44709 35.9201 9.57688 35.7607C9.6693 35.6472 9.76479 35.636 9.94889 35.7169C10.2671 35.8567 10.3752 35.8565 10.1861 35.7165C10.0749 35.6342 10.1259 35.6112 10.3894 35.6249C10.5828 35.6349 11.0817 35.5975 11.498 35.5416C11.9143 35.4858 12.376 35.4369 12.5241 35.433C12.9643 35.4214 12.8463 35.0577 12.2589 34.6158C11.9233 34.3632 11.7646 34.1753 11.8029 34.0758C11.8404 33.9786 11.9023 33.9596 11.9733 34.0235C12.0347 34.0787 12.1764 34.0872 12.2881 34.0424C12.3998 33.9976 12.6599 33.9622 12.8661 33.9636C13.1562 33.9657 13.2819 33.9028 13.4223 33.6852C13.6503 33.3318 13.6832 33.1316 13.5573 32.863C13.5026 32.7464 13.4988 32.6797 13.5488 32.7147C13.5988 32.7498 13.7037 32.6007 13.7821 32.3833C13.8604 32.166 13.9755 31.9539 14.0379 31.912C14.1002 31.8701 13.9703 31.8294 13.7492 31.8216C13.4522 31.811 13.3872 31.781 13.5004 31.7068C13.6167 31.6307 13.5744 31.6038 13.3256 31.5958C13.1452 31.59 12.9201 31.5391 12.8253 31.4827C12.7306 31.4264 12.2375 31.1895 11.7295 30.9562C10.7109 30.4884 10.1184 30.372 7.95263 30.2138C6.29294 30.0926 6.10649 30.0654 5.84638 29.9074C5.58159 29.7466 4.21293 29.4864 3.34365 29.4316C2.88801 29.4029 2.48293 29.3044 2.19282 29.1518C1.94659 29.0223 1.51996 28.8774 1.24477 28.8299C0.697503 28.7355 -0.0030518 28.4478 1.00015e-05 28.3188C0.001144 28.274 0.264249 28.1529 0.584844 28.0497C1.0775 27.891 1.49463 27.8697 3.27914 27.9118C4.70461 27.9455 5.51601 27.9205 5.77677 27.8347C6.15334 27.7109 6.51404 27.7395 7.4334 27.966C7.67037 28.0245 8.34438 28.0942 8.93119 28.1211C9.51799 28.1479 10.0842 28.2224 10.1895 28.2866C10.302 28.3553 10.5326 28.3737 10.7492 28.3314C10.9518 28.2918 11.1573 28.2709 11.2059 28.2848C11.3852 28.3364 14.4464 28.3864 14.7875 28.3433C15.3657 28.2703 16.0913 28.2256 17.0913 28.2016C17.6098 28.1891 18.0844 28.1277 18.1458 28.0651C18.2549 27.9538 18.0707 27.8921 17.7398 27.929C17.6705 27.9368 17.6151 27.8873 17.6167 27.819C17.6184 27.7507 17.5544 27.7197 17.4748 27.75C17.3951 27.7803 17.2758 27.7314 17.2096 27.6413C17.113 27.5097 17.0723 27.5045 17.0032 27.6151C16.9331 27.7273 16.9175 27.7264 16.919 27.6106C16.9201 27.5208 16.8506 27.4902 16.7301 27.5277C16.6031 27.5671 16.5182 27.5229 16.476 27.3952C16.4411 27.2897 16.4617 27.1873 16.5216 27.1677C16.6766 27.1169 16.9358 26.8388 16.9386 26.7202C16.9425 26.5549 16.5493 26.1649 16.4447 26.2304C16.3912 26.2639 16.3749 26.2202 16.4083 26.1333C16.4546 26.0132 16.4146 25.9891 16.2417 26.0326C16.061 26.078 16.028 26.054 16.0812 25.9158C16.1804 25.6584 15.9692 25.5691 15.7967 25.7955C15.7022 25.9195 15.6675 25.9324 15.702 25.8307C15.7628 25.6514 15.2995 25.3497 15.1281 25.4569C15.0691 25.4939 15.0567 25.4691 15.0993 25.3992C15.1403 25.3318 15.126 25.2753 15.0675 25.2737C15.0089 25.2721 14.9593 25.3436 14.9572 25.4326C14.9517 25.6609 14.7528 25.6296 14.7497 25.3999C14.7475 25.2395 14.7341 25.2432 14.6611 25.4245C14.6138 25.5419 14.5883 25.6647 14.6044 25.6974C14.6206 25.73 14.5462 25.7614 14.4393 25.7671C14.2041 25.7796 14.1924 25.694 14.4074 25.5342C14.5323 25.4413 14.4437 25.4194 13.9995 25.4335C13.6643 25.4441 13.4569 25.4107 13.4927 25.352C13.5264 25.2967 13.4632 25.2751 13.3508 25.3034C13.233 25.333 13.1495 25.3013 13.1513 25.2275C13.153 25.1578 13.1005 25.1344 13.0348 25.1755C12.9509 25.2281 12.9397 25.1895 12.9973 25.0459C13.0424 24.9336 13.0912 24.7758 13.1057 24.6953C13.151 24.4449 13.4087 24.3785 13.721 24.5367C13.885 24.6199 13.9625 24.6903 13.8933 24.6932C13.6462 24.7036 13.7673 24.9144 14.0244 24.9214C14.2135 24.9266 14.2718 24.884 14.2336 24.7687C14.2045 24.6807 14.2269 24.5799 14.2833 24.5446C14.3489 24.5035 14.3403 24.4168 14.2595 24.3044C14.1526 24.1556 14.1575 24.139 14.2914 24.1969C14.3786 24.2346 14.5147 24.2186 14.5941 24.1613C14.708 24.079 14.7008 24.0689 14.5597 24.1135C14.4091 24.161 14.3927 24.124 14.455 23.8779C14.4957 23.7174 14.5662 23.561 14.6116 23.5305C14.7596 23.431 14.6043 23.0046 14.4426 23.0661C14.3377 23.1061 14.304 23.0624 14.3302 22.9207C14.3577 22.7725 14.3136 22.7231 14.1661 22.7365C14.0552 22.7466 14.0219 22.7294 14.0922 22.6983C14.1624 22.6672 14.1972 22.6 14.1695 22.549C14.1418 22.498 14.2117 22.3904 14.3248 22.3099C14.4379 22.2294 14.5014 22.1307 14.4658 22.0906C14.4302 22.0504 14.4879 22.0191 14.5939 22.0211C14.7521 22.0241 14.7605 22.006 14.6408 21.9202C14.5452 21.8516 14.4691 21.8583 14.4195 21.9396C14.3779 22.0079 14.3159 22.032 14.2817 21.9934C14.2189 21.9225 14.4163 21.4704 14.552 21.374C14.663 21.2953 14.8018 20.8043 14.694 20.8717C14.643 20.9036 14.5507 20.8375 14.4888 20.7249C14.3886 20.5426 14.4063 20.5231 14.6489 20.5474C14.8208 20.5646 14.9135 20.5245 14.8997 20.4391C14.8876 20.3646 14.9115 20.3103 14.9528 20.3185C15.1594 20.3593 15.2803 20.2987 15.2837 20.1528C15.2858 20.0638 15.3355 19.9923 15.394 19.9939C15.4526 19.9956 15.476 19.9517 15.446 19.8966C15.416 19.8415 15.4489 19.7734 15.5191 19.7453C15.5961 19.7144 15.577 19.6888 15.471 19.6808C15.3743 19.6734 15.2961 19.6302 15.2972 19.5847C15.2983 19.5391 15.1409 19.5056 14.9474 19.51C14.7539 19.5145 14.6216 19.4753 14.6536 19.4229C14.6855 19.3705 14.6158 19.3251 14.4987 19.3219C14.3816 19.3187 14.3148 19.2683 14.3504 19.2099C14.386 19.1515 14.3624 19.1023 14.2979 19.1005C14.2305 19.0987 14.2094 19.0228 14.2482 18.922C14.3047 18.7754 14.2901 18.7683 14.1594 18.8788C14.0311 18.9872 14.0037 18.9818 14.0069 18.8485C14.009 18.7592 14.1018 18.6632 14.2132 18.6352C14.335 18.6045 14.4177 18.4936 14.421 18.3564C14.4255 18.1645 14.3825 18.1372 14.1484 18.1838C13.9203 18.2291 13.9019 18.2187 14.0458 18.1257C14.2088 18.0204 14.2064 17.9931 14.0117 17.7402C13.8965 17.5905 13.735 17.4661 13.6528 17.4639C13.3503 17.4556 13.6236 17.3495 14.0303 17.3173C14.2753 17.2979 14.425 17.3253 14.3897 17.3832C14.3565 17.4378 14.3745 17.4836 14.4298 17.4851C14.4851 17.4866 14.5544 17.4484 14.5838 17.4002C14.6132 17.3519 14.7862 17.3256 14.9684 17.3416C15.1505 17.3577 15.353 17.3281 15.4185 17.276C15.4917 17.2177 15.5617 17.2255 15.6002 17.2963C15.6426 17.3743 15.7242 17.3784 15.8528 17.309C15.9573 17.2526 16.1479 17.2135 16.2763 17.222C16.6332 17.2458 17.8678 17.1614 17.9542 17.1073C18.0214 17.0652 19.1224 16.9452 19.4593 16.9432C19.6358 16.9422 19.6286 16.4348 19.45 16.2851C19.3688 16.2169 19.2954 16.0264 19.2871 15.8615C19.2776 15.6754 19.2246 15.5799 19.147 15.6094C19.074 15.6372 19.0454 15.5969 19.078 15.5122C19.1144 15.4177 19.0297 15.3401 18.8336 15.2882C18.504 15.2011 18.2737 14.9593 18.3699 14.8014C18.4046 14.7445 18.3431 14.7227 18.2289 14.7514C18.0846 14.7877 18.0276 14.7493 18.0307 14.6179C18.0331 14.5164 17.9452 14.4055 17.8354 14.3715C17.6123 14.3024 17.5794 14.1696 17.7577 14.058C17.8317 14.0117 17.8472 14.0309 17.7993 14.1094C17.7574 14.1782 17.7605 14.2286 17.8063 14.2214C18.0217 14.1873 18.1399 14.2554 18.1362 14.4114C18.1309 14.6338 18.3744 14.5541 18.423 14.3175C18.4435 14.2176 18.4228 14.1418 18.3767 14.1491C18.0983 14.1934 17.9423 14.1049 17.947 13.9052C17.9499 13.783 17.9968 13.7143 18.0513 13.7525C18.1057 13.7907 18.1526 13.722 18.1555 13.5998C18.1584 13.4777 18.2238 13.3794 18.3008 13.3816C18.3778 13.3837 18.4696 13.3108 18.5047 13.2196C18.5398 13.1285 18.5266 13.0801 18.4753 13.1122C18.424 13.1443 18.364 13.1087 18.3419 13.0332C18.3198 12.9577 18.3115 12.9811 18.3236 13.0854C18.3357 13.1896 18.3046 13.2737 18.2544 13.2723C18.2043 13.2709 18.1647 13.212 18.1664 13.1414C18.1681 13.0707 18.1032 13.1051 18.0222 13.2177C17.9142 13.368 17.9054 13.4438 17.989 13.5025C18.0545 13.5484 18.0146 13.5729 17.8953 13.5599C17.7108 13.54 17.5874 13.2541 17.7654 13.259C17.8045 13.26 17.8672 13.1161 17.9046 12.939C17.9586 12.6833 18.0248 12.6185 18.2264 12.624C18.366 12.6278 18.4814 12.5824 18.4828 12.5231C18.4842 12.4637 18.5759 12.4177 18.6865 12.4207C18.8994 12.4265 18.953 12.5852 18.7789 12.6941C18.593 12.8105 18.7643 12.937 19.0804 12.9169C19.4918 12.8906 19.5926 12.7721 19.2236 12.7484C18.9361 12.73 18.9354 12.7283 19.1838 12.6598L19.4369 12.5899L19.2139 12.4517C18.9569 12.2925 18.9229 12.1034 19.1525 12.1096C19.2387 12.112 19.2801 12.1617 19.2445 12.2201C19.2089 12.2785 19.2277 12.3276 19.2863 12.3292C19.3449 12.3308 19.3951 12.235 19.3979 12.1163C19.401 11.9857 19.47 11.9025 19.573 11.9053C19.7209 11.9093 19.7181 11.8892 19.5515 11.7508C19.3986 11.6237 19.3493 11.6194 19.3065 11.7293C19.2739 11.8129 19.1797 11.8366 19.0664 11.7896C18.8911 11.717 18.8904 11.7016 19.0545 11.5343C19.1505 11.4363 19.2937 11.358 19.3727 11.3601C19.5025 11.3637 19.5637 11.2343 19.5366 11.0138C19.5311 10.9692 19.5971 10.9345 19.6833 10.9369C19.7695 10.9392 19.8151 10.8953 19.7846 10.8392C19.7124 10.7064 19.9062 10.5859 20.0405 10.6801C20.1114 10.7298 20.1058 10.8 20.0229 10.9018C19.9356 11.0089 19.9333 11.0517 20.0144 11.0539C20.1323 11.0571 20.1673 10.9274 20.1414 10.5838C20.1211 10.3152 20.3143 10.2023 20.776 10.2129C20.9981 10.218 21.1439 10.1724 21.1307 10.102C21.1165 10.0256 21.326 9.98684 21.7117 9.99455C22.0435 10.0012 22.3728 9.96051 22.4435 9.90416C22.5141 9.84781 22.7029 9.83355 22.863 9.87247C23.0702 9.92286 23.1931 9.89123 23.2896 9.76266C23.3641 9.66333 23.384 9.61763 23.3337 9.66111C23.2835 9.70459 23.1196 9.53012 22.9694 9.2734C22.8193 9.01667 22.6952 8.85054 22.6937 8.90422C22.6922 8.9579 22.6026 8.91148 22.4946 8.8011C22.3865 8.6907 22.3008 8.54726 22.304 8.48235C22.3072 8.41743 22.3539 8.45052 22.4078 8.55588C22.4617 8.66124 22.5805 8.74948 22.6717 8.75198C22.7944 8.75532 22.809 8.72413 22.7277 8.63242C22.6673 8.56417 22.6449 8.43806 22.678 8.35218C22.7272 8.22449 22.753 8.22267 22.8197 8.34222C22.8798 8.44984 22.9022 8.43148 22.9048 8.27265C22.9091 8.00284 22.6807 7.64923 22.5688 7.75247C22.5229 7.79481 22.5198 7.76889 22.5619 7.69487C22.6041 7.62085 22.68 7.58937 22.7306 7.62491C22.7813 7.66044 22.8239 7.64098 22.8253 7.58165C22.8266 7.52233 22.7853 7.44392 22.7332 7.40741C22.6061 7.31823 22.7323 7.00611 22.9638 6.83677C23.067 6.76133 23.1236 6.64839 23.0895 6.58579C23.0493 6.51171 23.1104 6.50136 23.2646 6.55613C23.4582 6.62486 23.4792 6.61371 23.3792 6.49527C23.2306 6.31908 23.2261 5.99293 23.3716 5.94527C23.4716 5.91253 23.499 5.72672 23.4678 5.29291C23.4597 5.18009 23.3696 5.10067 23.2448 5.09628C23.1245 5.09202 23.0821 5.05645 23.1451 5.0126C23.3035 4.9025 23.4059 4.57958 23.3049 4.50873C23.2575 4.47548 23.1969 4.50869 23.1704 4.58254C23.1438 4.65639 23.0963 4.69042 23.0649 4.65816C23.0334 4.62589 23.0493 4.53113 23.1003 4.44755C23.1784 4.31938 23.2245 4.32797 23.3953 4.50245C23.593 4.70446 23.598 4.7045 23.6105 4.50407C23.6176 4.39032 23.6445 4.35954 23.6708 4.43502C23.697 4.50994 23.7647 4.5725 23.8213 4.57405C23.8779 4.57567 23.9001 4.50393 23.8706 4.4148C23.8411 4.32566 23.8491 4.26087 23.8884 4.27082C23.9277 4.28077 24.0893 4.23568 24.2477 4.17064C24.406 4.10559 24.5764 4.08098 24.6262 4.11596C24.6761 4.15093 24.7182 4.12528 24.7197 4.05895C24.7212 3.99262 24.764 3.96743 24.8147 4.00297C24.8654 4.03851 24.9346 4.02207 24.9685 3.96644C25.0024 3.91081 25.1084 3.86785 25.204 3.87097C25.4817 3.88001 25.6547 3.8253 26.1183 3.58199C26.3576 3.45634 26.6162 3.35525 26.6928 3.35735C26.7694 3.35943 26.8519 3.30254 26.876 3.23091C26.923 3.09162 27.8623 3.04927 27.859 3.18659C27.8581 3.23036 27.9824 3.23242 28.1355 3.19117C28.4373 3.1099 29.0765 3.14424 29.5391 3.26658C29.779 3.33004 29.853 3.29839 29.9669 3.08343C30.0426 2.94051 30.0788 2.77621 30.0473 2.71834C29.9662 2.56913 29.2878 2.4487 28.1798 2.38681C27.6549 2.35749 27.1268 2.27237 27.0063 2.19765C26.8858 2.12294 26.7514 2.06724 26.7075 2.07387C26.6636 2.0805 26.4634 2.07569 26.2627 2.06316C25.988 2.04605 25.886 1.98671 25.8503 1.82325C25.8117 1.64685 25.8529 1.60681 26.0699 1.60996C26.3251 1.61365 26.3286 1.60656 26.148 1.45201C25.9788 1.3073 26.0562 1.29551 26.8795 1.34052C27.3858 1.36819 27.7996 1.42058 27.799 1.45692C27.7985 1.49326 27.9227 1.51083 28.0752 1.49597C28.758 1.42942 29.799 1.36568 30.1837 1.36689C30.4149 1.3677 30.5829 1.32924 30.5571 1.28163C30.5312 1.23402 30.592 1.19012 30.6922 1.18407C31.0886 1.16015 31.1837 1.14293 31.3592 1.0634C31.4595 1.01795 31.6325 0.80096 31.7436 0.581191C31.9488 0.175541 32.2776 -0.0545119 32.3398 0.164081C32.3636 0.247664 32.4195 0.245021 32.5257 0.1553C32.6219 0.0739492 32.7014 0.0665294 32.7427 0.135024C32.8115 0.249044 34.4336 0.294326 34.5407 0.185242C34.575 0.150224 34.6554 0.170584 34.7193 0.230484C34.8425 0.346078 35.4496 0.344642 35.6355 0.228312C35.6964 0.190208 35.9012 0.209556 36.0907 0.271306C36.2802 0.33306 37.2696 0.430996 38.2893 0.488942C39.309 0.54689 40.7309 0.6344 41.449 0.683409C45.3194 0.94756 46.5014 1.0076 48.9095 1.06237C50.8012 1.10539 51.5479 1.1567 51.5459 1.24352C51.5438 1.33111 51.5802 1.33318 51.6774 1.251C51.8132 1.13623 52.4191 1.12233 54.1626 1.19398C54.6877 1.21557 55.1627 1.2304 55.2181 1.22696C55.2736 1.22351 55.8176 1.18798 56.4272 1.14801C57.0368 1.10805 57.6103 1.1025 57.7017 1.13568C57.793 1.16887 57.8925 1.15546 57.9227 1.10588C57.953 1.0563 58.3538 1.01532 58.8136 1.01482C59.2734 1.01442 59.9094 0.971982 60.227 0.920718C60.5446 0.869458 61.3833 0.821621 62.0906 0.814412C62.798 0.807173 63.6939 0.791525 64.0815 0.779603C64.469 0.76768 64.8697 0.807052 64.9718 0.86709C65.0738 0.927129 65.1333 0.932013 65.1039 0.877938C65.0736 0.822247 65.4724 0.795173 66.0238 0.815489C66.5591 0.835219 67.1568 0.797685 67.3519 0.732086C67.6198 0.642035 67.7241 0.643876 67.7778 0.739611C67.8263 0.826311 67.8502 0.828855 67.8531 0.747641C67.8558 0.674547 68.1379 0.62725 68.5869 0.624589C69.5847 0.618689 72.6215 0.690492 73.237 0.734543C73.5132 0.754314 74.147 0.751394 74.6456 0.728095C75.8483 0.671846 77.7147 0.690042 77.7131 0.758003C77.7111 0.841917 78.1943 0.816873 79.0017 0.691222C79.4067 0.62819 79.8597 0.614475 80.0084 0.660751C80.3566 0.769119 81.0317 0.814418 81.0336 0.729537C81.0344 0.693556 81.1595 0.66765 81.3116 0.671967C84.1238 0.751827 89.432 0.694477 89.6112 0.582308C89.6544 0.555261 89.6887 0.576124 89.6875 0.62868C89.6861 0.681232 89.8209 0.706637 89.9867 0.685139C90.1525 0.663638 90.3671 0.684123 90.4634 0.730737C90.6853 0.83794 91.0866 0.881626 91.0386 0.79335C91.0187 0.756719 91.7804 0.758176 92.7313 0.796596C93.6822 0.835011 94.4601 0.874752 94.4598 0.884916C94.4598 0.895075 94.7419 0.920714 95.0873 0.941888C95.4326 0.963062 95.7159 0.949108 95.7168 0.910848C95.7177 0.872602 95.876 0.884016 96.0687 0.936214C96.2614 0.988413 96.4396 0.997545 96.4646 0.956511C96.4896 0.915473 96.9199 0.89586 97.4208 0.91293C97.9638 0.931423 98.3331 0.900418 98.3356 0.836139C98.3381 0.772564 98.3688 0.777311 98.4108 0.847699C98.4988 0.995664 99.2586 1.00884 99.363 0.864225C99.4139 0.79366 99.439 0.794349 99.4383 0.866295C99.4383 0.925648 99.607 0.97316 99.8146 0.971892C100.022 0.970675 100.296 1.01454 100.423 1.06947C100.56 1.12922 100.728 1.12873 100.84 1.06826C101.021 0.970799 101.443 0.940824 103.615 0.871243C104.168 0.853499 105.075 0.807679 105.629 0.769417C106.183 0.731155 107.429 0.715217 108.396 0.733999C109.364 0.752796 110.338 0.736633 110.56 0.698137C110.782 0.65963 112.005 0.647564 113.277 0.671323C116.264 0.72712 118.513 0.70126 119.408 0.600802C119.8 0.556803 120.643 0.462184 121.281 0.390539C121.919 0.318895 122.985 0.219215 123.651 0.169025C124.316 0.118834 125.064 0.0590272 125.314 0.0361193C126.131 -0.0389269 126.963 0.00393031 127.635 0.155742C128.059 0.251472 129.348 0.332786 131.231 0.382537C132.845 0.4252 134.197 0.481152 134.235 0.506885C134.274 0.532621 135.978 0.631096 138.023 0.725719C140.068 0.820343 142.102 0.930496 142.544 0.970506C145.024 1.19515 146.907 1.28763 151.035 1.38759C151.615 1.40164 152.248 1.43272 152.442 1.45664C152.859 1.50837 154.792 1.65497 156.609 1.77269C160.535 2.02711 162 2.10905 164.646 2.22228C166.249 2.29088 167.718 2.3776 167.911 2.41501C168.104 2.45242 168.623 2.51069 169.065 2.54451C169.882 2.60709 170.816 2.75105 170.936 2.83311C170.973 2.85806 171.311 2.91221 171.688 2.95345C172.065 2.99469 172.643 3.08201 172.974 3.14748C173.304 3.21296 173.71 3.29018 173.875 3.31909C174.04 3.348 174.543 3.48397 174.991 3.62127C175.44 3.75856 175.901 3.87347 176.016 3.87662C176.132 3.87977 176.225 3.9228 176.224 3.97223C176.223 4.02167 176.278 4.06421 176.347 4.06677C177.026 4.0919 178.648 4.30222 178.903 4.39809C179.08 4.46488 179.318 4.66623 179.43 4.84552C179.653 5.19958 180.255 5.56236 180.811 5.67691C181.506 5.82021 182.709 5.97333 182.962 5.95058C183.103 5.93781 183.218 5.9797 183.216 6.04369C183.215 6.10767 183.245 6.12806 183.283 6.08899C183.322 6.04992 183.445 6.11558 183.558 6.2349C183.67 6.35423 184.064 6.63115 184.432 6.85029C184.969 7.16953 185.244 7.26121 185.815 7.31157C186.569 7.37809 186.702 7.47418 186.618 7.89039C186.564 8.15565 186.159 8.36318 185.718 8.35114C185.591 8.34767 185.458 8.39262 185.423 8.45101C185.387 8.5094 185.205 8.55298 185.017 8.54785C184.488 8.53337 183.655 8.73043 183.655 8.87035C183.655 9.10044 184.415 9.40236 185.163 9.46918C185.568 9.50537 186.51 9.58034 187.256 9.63578C188.762 9.74774 188.919 9.78141 188.994 10.0069C189.104 10.3393 187.697 11.4214 186.55 11.8861C186.18 12.0361 185.992 12.1894 185.863 12.447C185.641 12.8891 185.737 13.1049 186.334 13.5038C186.565 13.6586 186.753 13.8594 186.751 13.9502C186.749 14.0409 186.813 14.1898 186.894 14.281C187.123 14.5398 187.061 14.7994 186.72 15.0029C186.549 15.1054 186.209 15.3807 185.967 15.6146C185.597 15.9707 185.445 16.0441 185.031 16.0661C184.667 16.0854 184.491 16.1539 184.363 16.3262C184.268 16.4549 184.211 16.5985 184.236 16.6454C184.262 16.6923 184.236 16.7294 184.179 16.7278C184.123 16.7262 184.021 16.8328 183.953 16.9645C183.885 17.0962 183.865 17.1708 183.907 17.1303C184.014 17.0294 184.284 17.3502 184.204 17.482C184.166 17.5433 184.216 17.5669 184.322 17.5382C184.422 17.511 184.322 17.5803 184.097 17.6924C183.873 17.8044 183.545 17.8934 183.369 17.8901C183.193 17.8869 182.932 17.9284 182.789 17.9823C182.597 18.0545 182.528 18.0455 182.528 17.9482C182.528 17.8755 182.481 17.8979 182.424 17.9979C182.226 18.3417 182.407 18.7237 182.905 19.0116C183.163 19.1608 183.441 19.3999 183.524 19.5431C183.607 19.6863 183.851 19.8655 184.067 19.9415C184.872 20.2245 184.985 20.787 184.276 20.9844C183.835 21.107 183.618 21.45 183.742 21.8281C183.806 22.0248 183.803 22.1142 183.731 22.1122C183.545 22.1071 183.361 22.3711 183.365 22.6365C183.37 22.8991 183.362 22.9033 182.51 23.0902C182.371 23.1207 182.118 23.2691 181.949 23.42C181.779 23.5709 181.514 23.7605 181.36 23.8412C181.206 23.922 181.079 24.0579 181.076 24.1433C181.072 24.3436 180.707 24.5411 180.272 24.5785C179.796 24.6194 179.6 24.7467 179.573 25.0313C179.551 25.2685 179.937 25.7862 180.141 25.7917C180.265 25.7951 180.821 26.4307 180.818 26.5657C180.813 26.7503 180.448 26.8671 179.745 26.9087C179.362 26.9314 178.821 26.9954 178.543 27.0509C178.082 27.1429 176.44 27.3968 176.065 27.4339C175.909 27.4495 175.831 27.8326 175.984 27.8368C176.029 27.838 176.019 27.9285 175.961 28.0378C175.903 28.1472 175.887 28.2714 175.924 28.3138C176.05 28.4561 175.972 29.8253 175.829 29.9771C175.755 30.0564 175.485 30.1306 175.231 30.142C174.819 30.1605 174.544 30.3225 174.634 30.4931C174.652 30.526 174.601 30.6139 174.523 30.6883C174.444 30.7627 174.38 30.7876 174.381 30.7438C174.382 30.6999 174.328 30.7197 174.261 30.7877C174.173 30.8779 174.105 30.8783 174.01 30.7893C173.915 30.7002 173.798 30.7012 173.575 30.793C173.062 31.0048 173.221 31.3341 173.911 31.4868C174.682 31.6575 174.853 31.7352 174.732 31.8587C174.699 31.8922 173.983 31.9165 173.142 31.9126C171.351 31.9043 171.144 31.9867 170.98 32.7744C170.926 33.0291 170.771 33.4167 170.635 33.6357C170.41 33.9976 170.232 34.4698 170.215 34.7487C170.212 34.808 170.056 34.868 169.87 34.882C169.638 34.8994 169.514 34.9719 169.476 35.1128C169.446 35.2258 169.381 35.2905 169.333 35.2567C169.285 35.2229 169.244 35.2445 169.243 35.3049C169.241 35.3652 169.032 35.5376 168.779 35.688C168.058 36.1147 167.951 36.4759 168.476 36.7065C168.721 36.8144 168.731 36.8958 168.554 37.3477C168.425 37.679 168.751 37.9022 169.828 38.2197C170.871 38.527 171.162 38.7294 170.856 38.9359C170.666 39.0641 169.304 38.901 167.162 38.4935C166.191 38.3089 165.781 38.3819 165.556 38.7794C165.331 39.1756 165.1 39.2883 164.431 39.3267C163.877 39.3586 163.355 39.6385 163.349 39.9076C163.345 40.0727 163.788 40.2406 164.301 40.2686C164.686 40.2897 165.139 40.5864 164.913 40.6701C164.843 40.6963 164.716 40.7879 164.632 40.8736C164.548 40.9593 164.48 41.0004 164.481 40.965C164.484 40.8345 163.865 41.227 163.739 41.435C163.583 41.6942 163.054 42.0428 162.846 42.0241C162.328 41.9774 161.639 42.0316 161.637 42.1192C161.632 42.2864 162.151 42.7796 162.26 42.7117C162.315 42.6776 162.328 42.7014 162.289 42.7648C162.25 42.8282 162.265 42.9123 162.321 42.9517C162.377 42.9912 162.395 43.07 162.36 43.1269C162.325 43.1838 162.351 43.3046 162.418 43.3954C162.608 43.6535 162.415 43.7514 161.646 43.7872C161.259 43.8053 160.738 43.8624 160.487 43.9142C160.237 43.9661 159.397 44.0959 158.619 44.2027C157.842 44.3096 156.952 44.4827 156.642 44.5874C156.325 44.6945 155.805 44.7704 155.454 44.7608C155.112 44.7515 154.502 44.8335 154.099 44.9431C153.407 45.1313 153.17 45.1338 149.849 44.9892C147.914 44.9049 145.947 44.8041 145.478 44.7651C144.255 44.6636 142.751 44.5057 142.545 44.4572C142.448 44.4344 141.272 44.3525 139.932 44.2754C138.016 44.1651 137.204 44.1632 136.134 44.2665C135.385 44.3388 134.01 44.4065 133.077 44.4171C132.144 44.4276 131.215 44.4532 131.013 44.4741C130.315 44.546 127.922 44.6515 126.517 44.6722C125.742 44.6837 124.338 44.7178 123.397 44.7481C122.456 44.7784 120.554 44.802 119.17 44.8005C117.787 44.7991 116.519 44.8101 116.353 44.8251C116.187 44.84 115.05 44.8561 113.827 44.8608C112.604 44.8654 111.472 44.8827 111.311 44.8992C111.002 44.931 110.24 44.9663 107.545 45.0737C105.429 45.1581 103.84 45.2703 102.529 45.4279C101.958 45.4965 101.319 45.5479 101.107 45.5421C100.896 45.5363 100.591 45.5736 100.429 45.6249C100.268 45.6763 99.8494 45.7357 99.4999 45.757C99.1503 45.7784 98.4236 45.88 97.8849 45.9829C97.3463 46.0859 96.6335 46.1886 96.301 46.2111C95.9685 46.2337 95.356 46.2901 94.9399 46.3364C94.5238 46.3827 93.9114 46.4375 93.5789 46.4583C93.2465 46.479 92.4821 46.5573 91.8804 46.6323C91.2786 46.7073 90.4166 46.7873 89.9648 46.8102C89.5129 46.833 88.8831 46.881 88.5651 46.9169C88.2472 46.9528 87.4317 46.9767 86.7531 46.97C86.0744 46.9634 85.1788 46.993 84.7628 47.0359C83.9416 47.1205 82.1941 47.1745 80.8366 47.1572C80.3664 47.1512 79.7772 47.1817 79.5272 47.2249C79.2772 47.2681 77.5565 47.2878 75.7034 47.2687C73.8503 47.2497 72.2365 47.2528 72.1171 47.2758C71.9977 47.2988 71.0238 47.3265 69.9528 47.3373C68.8818 47.3482 67.7789 47.3662 67.502 47.3773C67.2251 47.3884 66.2061 47.4055 65.2376 47.4153C64.2691 47.4251 63.0914 47.4543 62.6205 47.4801C62.1496 47.506 61.7194 47.5129 61.6645 47.4955C61.6095 47.4782 60.9074 47.4985 60.1041 47.5408C59.3008 47.583 58.1906 47.6319 57.6368 47.6495C57.0831 47.667 56.4713 47.6969 56.2772 47.7159C56.0831 47.7349 55.313 47.7649 54.5658 47.7827C53.8187 47.8004 53.1842 47.8293 53.1559 47.847C53.1276 47.8647 52.5382 47.895 51.8461 47.9144C51.154 47.9338 50.4969 47.9666 50.3857 47.9874C50.1821 48.0255 43.0575 47.9708 39.9756 47.9075C39.0631 47.8888 37.5483 47.8173 36.6093 47.7486L36.6094 47.7484ZM16.2067 33.8379C16.2569 33.8357 16.2167 33.7326 16.1175 33.6087C15.9631 33.416 15.836 33.3854 15.2348 33.3957C14.8485 33.4024 14.5152 33.4592 14.4942 33.5221C14.4392 33.6866 15.1321 33.8892 15.6624 33.8637C15.9116 33.8517 16.1566 33.8401 16.2067 33.8379V33.8379ZM18.7187 28.0113C18.7193 27.9852 18.6746 27.9625 18.6193 27.961C18.564 27.9596 18.5175 28.0097 18.516 28.0725C18.5145 28.1353 18.5593 28.1579 18.6155 28.1228C18.6716 28.0876 18.7181 28.0375 18.7187 28.0113ZM13.6679 24.6532C13.6685 24.6299 13.5994 24.58 13.5144 24.5423C13.4258 24.503 13.385 24.52 13.4188 24.5821C13.4754 24.6862 13.6658 24.7406 13.6679 24.6532V24.6532ZM14.8679 21.2458C14.7711 21.1374 14.7592 21.1494 14.8101 21.3046C14.8454 21.4121 14.9002 21.4735 14.9319 21.4411C14.9636 21.4087 14.9348 21.3208 14.8679 21.2458V21.2458ZM15.7029 19.9734C15.6061 19.865 15.5942 19.8771 15.6451 20.0323C15.6804 20.1397 15.7352 20.2011 15.7669 20.1687C15.7986 20.1364 15.7698 20.0485 15.7029 19.9734V19.9734ZM14.9511 19.3341C14.9183 19.2738 14.8715 19.224 14.8472 19.2233C14.8228 19.2227 14.8017 19.2706 14.8003 19.33C14.7989 19.3893 14.8456 19.4391 14.9042 19.4407C14.9627 19.4424 14.9838 19.3943 14.9511 19.3341V19.3341ZM19.0631 14.2999C18.9913 14.2668 18.9045 14.2682 18.8702 14.3031C18.836 14.3381 18.8947 14.3652 19.0008 14.3634C19.1181 14.3614 19.1425 14.3365 19.0631 14.2999V14.2999ZM19.0509 14.0169C18.9004 13.8765 18.662 13.4496 18.665 13.3256C18.6659 13.2879 18.7341 13.3203 18.8166 13.3977C19.012 13.5809 19.1306 13.4581 18.9698 13.2391C18.8284 13.0465 18.5676 13.1888 18.5611 13.4621C18.5591 13.5473 18.5222 13.5923 18.479 13.562C18.4359 13.5318 18.3918 13.6006 18.3811 13.7149C18.368 13.8541 18.4258 13.9245 18.5563 13.928C18.6635 13.931 18.75 13.9819 18.7486 14.0412C18.7473 14.1006 18.8478 14.1503 18.9723 14.1518C19.1665 14.1542 19.1776 14.1351 19.0509 14.0169ZM18.4532 13.7697C18.4538 13.7435 18.5003 13.6934 18.5565 13.6582C18.6126 13.6231 18.6574 13.6457 18.6559 13.7085C18.6544 13.7714 18.6079 13.8215 18.5526 13.82C18.4973 13.8186 18.4526 13.7959 18.4532 13.7697ZM20.2845 11.5738C20.2938 11.4405 20.2781 11.3918 20.2496 11.4656C20.2211 11.5394 20.1575 11.5715 20.1084 11.537C20.0592 11.5026 20.0442 11.5504 20.0749 11.6434C20.1563 11.8896 20.265 11.8535 20.2845 11.5738V11.5738ZM19.7694 11.4716C19.8821 11.2867 19.7598 11.2435 19.6177 11.418C19.5359 11.5184 19.5268 11.5801 19.5935 11.5819C19.6523 11.5835 19.7315 11.5338 19.7694 11.4716V11.4716ZM23.1205 7.85821C23.1211 7.8349 23.0543 7.78603 22.9722 7.74961C22.8901 7.7132 22.8218 7.73041 22.8204 7.78788C22.8191 7.84535 22.8858 7.89421 22.9687 7.89648C23.0517 7.89875 23.12 7.88152 23.1205 7.85821ZM6.15172 36.1533C6.15304 36.0975 6.20008 36.023 6.25624 35.9879C6.31241 35.9527 6.35656 35.9997 6.35437 36.0921C6.35218 36.1846 6.30513 36.2591 6.24984 36.2576C6.19455 36.2561 6.15039 36.2091 6.15172 36.1533ZM10.4609 27.3961C10.5208 27.335 10.6287 27.3078 10.7006 27.3358C10.7752 27.3647 10.7285 27.4124 10.5916 27.4468C10.4233 27.4892 10.3844 27.4741 10.4609 27.3961ZM11.8912 27.4533C11.788 27.3777 11.7812 27.3411 11.8689 27.3329C12.09 27.3124 12.1438 27.2968 12.2671 27.2173C12.3335 27.1746 12.4191 27.1973 12.4575 27.2679C12.5011 27.348 12.4844 27.366 12.413 27.316C12.3453 27.2685 12.2971 27.3044 12.2948 27.404C12.2903 27.5937 12.1125 27.6155 11.8912 27.4533ZM11.3793 27.1964C11.4573 27.1168 11.5308 27.1129 11.5946 27.1849C11.6584 27.2569 11.6179 27.2981 11.4761 27.3057C11.314 27.3143 11.2901 27.2873 11.3793 27.1964V27.1964ZM13.9469 25.6143C13.949 25.5218 13.9954 25.4774 14.0498 25.5156C14.1042 25.5537 14.1477 25.6307 14.1463 25.6865C14.145 25.7423 14.0987 25.7867 14.0434 25.7852C13.9881 25.7838 13.9447 25.7068 13.9469 25.6143ZM14.1015 23.8146C14.2734 23.481 14.2908 23.4717 14.2669 23.7256C14.2552 23.8492 14.1858 23.9731 14.1125 24.001C14.0062 24.0415 14.0039 24.0039 14.1015 23.8146V23.8146ZM14.7939 19.8738C14.7098 19.8148 14.7584 19.7653 14.9442 19.7207C15.281 19.6397 15.3454 19.6907 15.1014 19.845C15.0006 19.9088 14.8623 19.9217 14.7939 19.8738ZM16.9985 12.633C17.0327 12.5981 17.1195 12.5966 17.1914 12.6298C17.2707 12.6664 17.2463 12.6913 17.1291 12.6933C17.023 12.6951 16.9642 12.6679 16.9985 12.633V12.633ZM17.3103 12.2098C17.3446 12.1749 17.4314 12.1734 17.5032 12.2066C17.5826 12.2432 17.5582 12.2681 17.4409 12.2701C17.3348 12.2719 17.2761 12.2447 17.3103 12.2098V12.2098ZM19.1334 10.8767C19.1317 10.7629 19.1571 10.6999 19.1896 10.7366C19.2222 10.7734 19.2235 10.8665 19.1926 10.9436C19.1585 11.0287 19.1353 11.0025 19.1334 10.8767H19.1334ZM22.7865 4.97732C22.6974 4.91202 22.686 4.86929 22.758 4.87026C22.8239 4.87127 22.9046 4.92118 22.9373 4.98144C23.0113 5.11746 22.9765 5.11651 22.7865 4.97732V4.97732Z" fill="url(#paint0_linear)"/>
<path d="M31.8768 31.1538V30.3538C32.3168 30.3405 32.6701 30.3071 32.9368 30.2538C33.2168 30.1871 33.4301 30.0738 33.5768 29.9138C33.7368 29.7405 33.8434 29.5138 33.8968 29.2338C33.9501 28.9405 33.9768 28.5538 33.9768 28.0738V18.8338C33.9768 18.3671 33.9568 17.9938 33.9168 17.7138C33.8768 17.4205 33.7901 17.1938 33.6568 17.0338C33.5234 16.8605 33.3368 16.7471 33.0968 16.6938C32.8701 16.6271 32.5701 16.5805 32.1968 16.5538V15.7538H39.7968C41.0768 15.7538 42.2568 15.9538 43.3368 16.3538C44.4168 16.7538 45.3501 17.3071 46.1368 18.0138C46.9234 18.7205 47.5368 19.5605 47.9768 20.5338C48.4168 21.5071 48.6368 22.5671 48.6368 23.7138C48.6368 24.8071 48.4301 25.8138 48.0168 26.7338C47.6034 27.6405 47.0234 28.4205 46.2768 29.0738C45.5434 29.7271 44.6568 30.2405 43.6168 30.6138C42.5901 30.9738 41.4568 31.1538 40.2168 31.1538H31.8768ZM37.2568 16.9738C37.0301 16.9738 36.9168 17.0871 36.9168 17.3138V27.6538C36.9168 28.4271 37.1568 29.0005 37.6368 29.3738C38.1168 29.7471 38.8568 29.9338 39.8568 29.9338C41.6034 29.9338 42.9434 29.4071 43.8768 28.3538C44.8234 27.3005 45.2968 25.7671 45.2968 23.7538C45.2968 22.6871 45.1701 21.7338 44.9168 20.8938C44.6634 20.0538 44.2968 19.3471 43.8168 18.7738C43.3368 18.1871 42.7501 17.7405 42.0568 17.4338C41.3768 17.1271 40.6101 16.9738 39.7568 16.9738H37.2568ZM60.3557 29.2938C59.1423 30.6671 57.629 31.3538 55.8157 31.3538C54.989 31.3538 54.2357 31.2271 53.5557 30.9738C52.889 30.7071 52.3157 30.3405 51.8357 29.8738C51.3557 29.3938 50.9823 28.8271 50.7157 28.1738C50.449 27.5205 50.3157 26.7938 50.3157 25.9938C50.3157 25.1671 50.4557 24.4138 50.7357 23.7338C51.0157 23.0405 51.409 22.4471 51.9157 21.9538C52.4357 21.4471 53.0423 21.0538 53.7357 20.7738C54.4423 20.4938 55.2157 20.3538 56.0557 20.3538C57.469 20.3538 58.569 20.7338 59.3557 21.4938C60.1423 22.2538 60.5357 23.3205 60.5357 24.6938C60.5357 24.9071 60.5023 25.0405 60.4357 25.0938C60.369 25.1338 60.1823 25.1538 59.8757 25.1538H53.4357C53.3823 25.2738 53.3557 25.4938 53.3557 25.8138C53.3557 27.1205 53.6357 28.1538 54.1957 28.9138C54.769 29.6738 55.5423 30.0538 56.5157 30.0538C57.0757 30.0538 57.629 29.9271 58.1757 29.6738C58.7357 29.4205 59.2757 29.0605 59.7957 28.5938L60.3557 29.2938ZM56.4757 24.0338C57.009 24.0338 57.349 24.0071 57.4957 23.9538C57.6557 23.8871 57.7357 23.7405 57.7357 23.5138C57.7357 22.9271 57.569 22.4471 57.2357 22.0738C56.9023 21.7005 56.4823 21.5138 55.9757 21.5138C55.4023 21.5138 54.889 21.7538 54.4357 22.2338C53.9957 22.7005 53.709 23.3005 53.5757 24.0338H56.4757ZM66.3949 27.8938C66.3949 28.4405 66.4082 28.8738 66.4349 29.1938C66.4749 29.5005 66.5482 29.7405 66.6549 29.9138C66.7749 30.0738 66.9482 30.1805 67.1749 30.2338C67.4149 30.2871 67.7349 30.3271 68.1349 30.3538V31.1538H61.8349V30.3538C62.2215 30.3271 62.5282 30.2871 62.7549 30.2338C62.9949 30.1805 63.1749 30.0738 63.2949 29.9138C63.4282 29.7538 63.5149 29.5271 63.5549 29.2338C63.5949 28.9405 63.6149 28.5405 63.6149 28.0338V25.5338C63.6149 24.7471 63.6015 24.1138 63.5749 23.6338C63.5482 23.1405 63.5149 22.8071 63.4749 22.6338C63.4349 22.4605 63.3815 22.3205 63.3149 22.2138C63.2482 22.0938 63.1482 22.0071 63.0149 21.9538C62.8815 21.8871 62.7149 21.8471 62.5149 21.8338C62.3149 21.8071 62.0615 21.7938 61.7549 21.7938V21.1138L65.6149 20.3538L65.8749 22.1138H65.9549C66.3949 21.5538 66.9149 21.1205 67.5149 20.8138C68.1149 20.5071 68.7749 20.3538 69.4949 20.3538C70.3482 20.3538 71.0349 20.4738 71.5549 20.7138C72.0882 20.9405 72.5615 21.3271 72.9749 21.8738C73.2015 22.1805 73.4015 22.5805 73.5749 23.0738C73.7482 23.5538 73.8349 24.2205 73.8349 25.0738V27.8938C73.8349 28.4405 73.8482 28.8738 73.8749 29.1938C73.9149 29.5005 73.9882 29.7405 74.0949 29.9138C74.2149 30.0738 74.3882 30.1805 74.6149 30.2338C74.8415 30.2871 75.1482 30.3271 75.5349 30.3538V31.1538H69.2749V30.3538C69.6749 30.3405 69.9882 30.3071 70.2149 30.2538C70.4549 30.1871 70.6349 30.0738 70.7549 29.9138C70.8749 29.7538 70.9549 29.5271 70.9949 29.2338C71.0349 28.9271 71.0549 28.5271 71.0549 28.0338V25.3138C71.0549 24.6338 71.0149 24.0605 70.9349 23.5938C70.8549 23.1271 70.7215 22.7538 70.5349 22.4738C70.3615 22.1805 70.1282 21.9738 69.8349 21.8538C69.5415 21.7205 69.1749 21.6538 68.7349 21.6538C68.3082 21.6538 67.9415 21.7738 67.6349 22.0138C67.3282 22.2538 67.0615 22.5871 66.8349 23.0138C66.7149 23.2538 66.6082 23.5671 66.5149 23.9538C66.4349 24.3271 66.3949 24.7205 66.3949 25.1338V27.8938ZM80.9261 27.8738C80.9261 28.4071 80.9461 28.8338 80.9861 29.1538C81.0261 29.4738 81.1061 29.7205 81.2261 29.8938C81.3461 30.0671 81.5195 30.1871 81.7461 30.2538C81.9728 30.3071 82.2795 30.3405 82.6661 30.3538V31.1538H76.3661V30.3538C76.7395 30.3405 77.0395 30.3005 77.2661 30.2338C77.5061 30.1538 77.6861 30.0338 77.8061 29.8738C77.9395 29.7005 78.0261 29.4671 78.0661 29.1738C78.1195 28.8671 78.1461 28.4805 78.1461 28.0138V25.5538C78.1461 24.7805 78.1328 24.1471 78.1061 23.6538C78.0795 23.1471 78.0461 22.8005 78.0061 22.6138C77.9395 22.2805 77.7861 22.0605 77.5461 21.9538C77.3195 21.8471 76.8995 21.7938 76.2861 21.7938V21.1138L80.9261 20.3538V27.8738ZM77.9861 16.1138C77.9861 15.6738 78.1328 15.3071 78.4261 15.0138C78.7328 14.7071 79.0995 14.5538 79.5261 14.5538C79.9661 14.5538 80.3328 14.7071 80.6261 15.0138C80.9328 15.3071 81.0861 15.6738 81.0861 16.1138C81.0861 16.5405 80.9328 16.9071 80.6261 17.2138C80.3328 17.5071 79.9661 17.6538 79.5261 17.6538C79.0995 17.6538 78.7328 17.5071 78.4261 17.2138C78.1328 16.9071 77.9861 16.5405 77.9861 16.1138ZM93.4127 31.1538H83.5327V30.6938L89.7927 21.6138H87.9527C87.3794 21.6138 86.9127 21.6405 86.5527 21.6938C86.1927 21.7338 85.8994 21.8338 85.6727 21.9938C85.4594 22.1405 85.2927 22.3471 85.1727 22.6138C85.066 22.8805 84.9727 23.2338 84.8927 23.6738H84.1127L84.3527 20.5538H93.3727V21.0138L87.2127 30.0738H88.9727C89.666 30.0738 90.2394 30.0471 90.6927 29.9938C91.146 29.9271 91.5127 29.8138 91.7927 29.6538C92.0727 29.4805 92.2927 29.2471 92.4527 28.9538C92.6127 28.6471 92.7527 28.2471 92.8727 27.7538H93.6527L93.4127 31.1538ZM100.931 18.2738C100.731 17.9271 100.544 17.6405 100.371 17.4138C100.211 17.1871 100.044 17.0138 99.8711 16.8938C99.6978 16.7605 99.5111 16.6738 99.3111 16.6338C99.1111 16.5805 98.8845 16.5538 98.6311 16.5538V15.7538H105.351V16.5538C104.791 16.5538 104.398 16.6071 104.171 16.7138C103.944 16.8205 103.831 16.9805 103.831 17.1938C103.831 17.3271 103.871 17.4871 103.951 17.6738C104.031 17.8605 104.158 18.1138 104.331 18.4338L107.191 23.8938H107.271L109.791 19.6938C110.231 18.9471 110.538 18.3938 110.711 18.0338C110.884 17.6605 110.971 17.3671 110.971 17.1538C110.971 16.9271 110.864 16.7738 110.651 16.6938C110.451 16.6005 110.071 16.5538 109.511 16.5538V15.7538H114.531V16.5538C114.238 16.5538 113.971 16.6005 113.731 16.6938C113.491 16.7871 113.238 16.9738 112.971 17.2538C112.718 17.5205 112.424 17.9005 112.091 18.3938C111.771 18.8738 111.384 19.5071 110.931 20.2938L108.011 25.2938V27.3338C108.011 28.0005 108.038 28.5338 108.091 28.9338C108.158 29.3338 108.264 29.6405 108.411 29.8538C108.571 30.0538 108.784 30.1871 109.051 30.2538C109.318 30.3205 109.664 30.3538 110.091 30.3538V31.1538H102.971V30.3538C103.384 30.3538 103.724 30.3205 103.991 30.2538C104.271 30.1871 104.491 30.0538 104.651 29.8538C104.811 29.6538 104.918 29.3671 104.971 28.9938C105.038 28.6071 105.071 28.1005 105.071 27.4738V25.6338L100.931 18.2738ZM122.293 23.8338C122.293 23.3005 122.28 22.8805 122.253 22.5738C122.226 22.2538 122.153 22.0138 122.033 21.8538C121.913 21.6805 121.733 21.5671 121.493 21.5138C121.266 21.4471 120.953 21.3938 120.553 21.3538V20.5538H125.073V26.6138C125.073 27.4271 125.08 28.0671 125.093 28.5338C125.12 28.9871 125.16 29.3271 125.213 29.5538C125.253 29.7271 125.3 29.8671 125.353 29.9738C125.406 30.0671 125.493 30.1471 125.613 30.2138C125.733 30.2671 125.893 30.3071 126.093 30.3338C126.306 30.3471 126.58 30.3538 126.913 30.3538V31.1338L122.933 31.3738L122.713 29.5938H122.633C122.286 30.1538 121.8 30.5871 121.173 30.8938C120.546 31.2005 119.846 31.3538 119.073 31.3538C117.646 31.3538 116.56 30.8471 115.813 29.8338C115.24 29.0605 114.953 27.9605 114.953 26.5338V23.8338C114.953 23.2871 114.94 22.8605 114.913 22.5538C114.886 22.2338 114.813 21.9938 114.693 21.8338C114.586 21.6738 114.42 21.5671 114.193 21.5138C113.966 21.4471 113.653 21.3938 113.253 21.3538V20.5538H117.733V26.2138C117.733 27.5605 117.9 28.5405 118.233 29.1538C118.566 29.7538 119.1 30.0538 119.833 30.0538C120.62 30.0538 121.226 29.6938 121.653 28.9738C122.08 28.2805 122.293 27.2605 122.293 25.9138V23.8338ZM116.393 16.3538C116.393 15.9805 116.513 15.6738 116.753 15.4338C117.006 15.1805 117.313 15.0538 117.673 15.0538C118.046 15.0538 118.353 15.1805 118.593 15.4338C118.846 15.6738 118.973 15.9805 118.973 16.3538C118.973 16.7138 118.846 17.0205 118.593 17.2738C118.353 17.5138 118.046 17.6338 117.673 17.6338C117.313 17.6338 117.006 17.5138 116.753 17.2738C116.513 17.0205 116.393 16.7138 116.393 16.3538ZM120.313 16.3538C120.313 15.9805 120.433 15.6738 120.673 15.4338C120.926 15.1805 121.233 15.0538 121.593 15.0538C121.966 15.0538 122.273 15.1805 122.513 15.4338C122.766 15.6738 122.893 15.9805 122.893 16.3538C122.893 16.7138 122.766 17.0205 122.513 17.2738C122.273 17.5138 121.966 17.6338 121.593 17.6338C121.233 17.6338 120.926 17.5138 120.673 17.2738C120.433 17.0205 120.313 16.7138 120.313 16.3538ZM137.733 29.4938C137.226 30.0538 136.593 30.4871 135.833 30.7938C135.086 31.1005 134.273 31.2538 133.393 31.2538C132.58 31.2538 131.84 31.1271 131.173 30.8738C130.506 30.6071 129.933 30.2405 129.453 29.7738C128.973 29.3071 128.6 28.7471 128.333 28.0938C128.08 27.4271 127.953 26.6938 127.953 25.8938C127.953 25.0671 128.093 24.3138 128.373 23.6338C128.653 22.9538 129.046 22.3738 129.553 21.8938C130.06 21.4005 130.666 21.0205 131.373 20.7538C132.08 20.4871 132.86 20.3538 133.713 20.3538C134.313 20.3538 134.866 20.4138 135.373 20.5338C135.893 20.6538 136.333 20.8205 136.693 21.0338C137.066 21.2471 137.36 21.5005 137.573 21.7938C137.786 22.0738 137.893 22.3805 137.893 22.7138C137.893 23.1005 137.78 23.4071 137.553 23.6338C137.34 23.8605 137.046 23.9738 136.673 23.9738C136.366 23.9738 136.093 23.8938 135.853 23.7338C135.626 23.5738 135.4 23.3138 135.173 22.9538C134.973 22.6338 134.8 22.3805 134.653 22.1938C134.52 22.0071 134.393 21.8671 134.273 21.7738C134.153 21.6671 134.033 21.6005 133.913 21.5738C133.793 21.5338 133.646 21.5138 133.473 21.5138C132.7 21.5138 132.1 21.8738 131.673 22.5938C131.246 23.3138 131.033 24.3205 131.033 25.6138C131.033 27.0005 131.286 28.0671 131.793 28.8138C132.313 29.5605 133.053 29.9338 134.013 29.9338C134.56 29.9338 135.106 29.8338 135.653 29.6338C136.2 29.4205 136.72 29.1205 137.213 28.7338L137.733 29.4938ZM149.262 29.2938C148.049 30.6671 146.535 31.3538 144.722 31.3538C143.895 31.3538 143.142 31.2271 142.462 30.9738C141.795 30.7071 141.222 30.3405 140.742 29.8738C140.262 29.3938 139.889 28.8271 139.622 28.1738C139.355 27.5205 139.222 26.7938 139.222 25.9938C139.222 25.1671 139.362 24.4138 139.642 23.7338C139.922 23.0405 140.315 22.4471 140.822 21.9538C141.342 21.4471 141.949 21.0538 142.642 20.7738C143.349 20.4938 144.122 20.3538 144.962 20.3538C146.375 20.3538 147.475 20.7338 148.262 21.4938C149.049 22.2538 149.442 23.3205 149.442 24.6938C149.442 24.9071 149.409 25.0405 149.342 25.0938C149.275 25.1338 149.089 25.1538 148.782 25.1538H142.342C142.289 25.2738 142.262 25.4938 142.262 25.8138C142.262 27.1205 142.542 28.1538 143.102 28.9138C143.675 29.6738 144.449 30.0538 145.422 30.0538C145.982 30.0538 146.535 29.9271 147.082 29.6738C147.642 29.4205 148.182 29.0605 148.702 28.5938L149.262 29.2938ZM145.382 24.0338C145.915 24.0338 146.255 24.0071 146.402 23.9538C146.562 23.8871 146.642 23.7405 146.642 23.5138C146.642 22.9271 146.475 22.4471 146.142 22.0738C145.809 21.7005 145.389 21.5138 144.882 21.5138C144.309 21.5138 143.795 21.7538 143.342 22.2338C142.902 22.7005 142.615 23.3005 142.482 24.0338H145.382Z" fill="white"/>
<defs>
<linearGradient id="paint0_linear" x1="-1.49182e-06" y1="23.9278" x2="189" y2="23.9278" gradientUnits="userSpaceOnUse">
<stop stop-color="#9350B9"/>
<stop offset="0.333734" stop-color="#9350B9" stop-opacity="0.488562"/>
<stop offset="0.713143" stop-color="#9350B9" stop-opacity="0.263255"/>
<stop offset="0.799747" stop-color="#9350B9" stop-opacity="0.264012"/>
<stop offset="0.882227" stop-color="#9350B9" stop-opacity="0.104248"/>
<stop offset="1" stop-color="#9350B9" stop-opacity="0"/>
</linearGradient>
</defs>
</svg>
