<svg width="164" height="125" viewBox="0 0 164 125" fill="none" xmlns="http://www.w3.org/2000/svg">
<path d="M82 45.3412V97.3505V45.3412ZM82 97.3505L55.3333 71.3458L82 97.3505ZM82 97.3505L108.667 71.3458L82 97.3505ZM2 106.019V19.3365C2 14.7385 3.87301 10.3289 7.20699 7.07773C10.541 3.82651 15.0628 2 19.7778 2H73.1111L90.8889 19.3365H144.222C148.937 19.3365 153.459 21.163 156.793 24.4142C160.127 27.6654 162 32.075 162 36.6729V106.019C162 110.617 160.127 115.026 156.793 118.277C153.459 121.529 148.937 123.355 144.222 123.355H19.7778C15.0628 123.355 10.541 121.529 7.20699 118.277C3.87301 115.026 2 110.617 2 106.019Z" stroke="#D2C1D9" stroke-width="3" stroke-linecap="round" stroke-linejoin="round"/>
</svg>
