<svg width="30" height="30" viewBox="0 0 30 30" fill="none" xmlns="http://www.w3.org/2000/svg">
<path d="M6.98317 9.65137H0.960674C0.693369 9.65137 0.476807 9.86805 0.476807 10.1352V29.4831C0.476807 29.7504 0.693369 29.967 0.960674 29.967H6.98317C7.25048 29.967 7.46704 29.7504 7.46704 29.4831V10.1352C7.46704 9.86805 7.25048 9.65137 6.98317 9.65137Z" fill="#CDB5D6"/>
<path d="M3.97412 0.0332031C1.78277 0.0332031 0 1.81404 0 4.00299C0 6.19287 1.78277 7.97441 3.97412 7.97441C6.16371 7.97441 7.94508 6.19281 7.94508 4.00299C7.94514 1.81404 6.16377 0.0332031 3.97412 0.0332031Z" fill="#CDB5D6"/>
<path d="M22.302 9.1709C19.8832 9.1709 18.0951 10.2108 17.0105 11.3922V10.1356C17.0105 9.86846 16.7939 9.65178 16.5266 9.65178H10.759C10.4917 9.65178 10.2751 9.86846 10.2751 10.1356V29.4835C10.2751 29.7508 10.4917 29.9674 10.759 29.9674H16.7684C17.0357 29.9674 17.2523 29.7508 17.2523 29.4835V19.9108C17.2523 16.6851 18.1285 15.4284 20.3771 15.4284C22.8261 15.4284 23.0207 17.443 23.0207 20.0768V29.4837C23.0207 29.751 23.2373 29.9675 23.5046 29.9675H29.5162C29.7835 29.9675 30 29.751 30 29.4837V18.871C30 14.0744 29.0854 9.1709 22.302 9.1709Z" fill="#CDB5D6"/>
</svg>
