<svg width="40" height="40" viewBox="0 0 40 40" fill="none" xmlns="http://www.w3.org/2000/svg">
<path d="M18.0016 5.36787L18.1591 6.2657V7.12449V8.10039C18.1591 8.64689 18.1836 9.03725 18.2773 9.93508C18.3955 11.0671 18.6318 13.3312 19.9317 12.9799C24.118 11.8484 27.3858 15.8215 27.4682 19.2834C27.5558 22.9594 24.0995 26.3595 20.4098 26.3595C19.9825 26.3595 19.5653 26.3975 19.1608 26.3202V38.8163C19.5738 38.8416 19.9901 38.855 20.4098 38.855C31.2292 38.855 40 30.1632 40 19.4413C40 8.74556 32.3397 0.0198669 21.5467 0.0199432C21.5467 0.0199432 17.5135 -0.396797 17.7652 2.59632C17.8046 3.06475 17.7652 2.86957 18.0016 5.36787Z" fill="url(#paint0_linear)"/>
<path d="M27.5472 19.359C27.5925 23.0006 24.0741 26.4382 20.4099 26.4382C19.9826 26.4382 19.5654 26.3978 19.1609 26.3206L19.1609 38.8167C19.5196 38.8386 19.8808 38.8509 20.2447 38.854L39.9168 19.359L27.5472 19.359Z" fill="url(#paint1_linear)"/>
<path d="M18.1197 7.04689L18.2379 9.81844L18.4349 11.536C19.2227 14.4637 18.4349 8.53025 18.4349 11.536C18.589 14.5808 23.1119 12.3823 25.6329 12.4412C29.1263 12.5229 27.2639 15.8972 27.3464 19.3591C27.4339 23.0351 24.0995 26.2816 20.4098 26.2816C19.9825 26.2816 19.5653 26.2412 19.1608 26.1639V35.5506C19.556 35.5804 19.955 35.5963 20.358 35.5976C29.256 35.6253 36.5821 28.4978 36.7108 19.681C36.8428 10.6484 30.8823 2.79197 17.844 3.61172C17.844 3.61172 17.844 4.00208 18.1197 7.04689Z" fill="url(#paint2_linear)"/>
<path d="M23.9126 35.2192L36.3333 22.9104C36.5651 21.8677 36.6948 20.7877 36.711 19.681C36.7126 19.5734 36.7121 19.4663 36.7116 19.3591L27.5472 19.3591C27.5925 23.0007 24.0741 26.3599 20.4099 26.3599C19.9826 26.3599 19.5654 26.3196 19.1609 26.2423V35.5506C19.5561 35.5804 19.9551 35.5963 20.3581 35.5976C21.5774 35.6013 22.7669 35.47 23.9126 35.2192Z" fill="url(#paint3_linear)"/>
<path d="M18.0803 6.57822L18.2379 10.1695L18.5136 12.1213L18.8287 12.6362C19.8923 12.5898 18.7106 11.3406 18.8287 12.6362C18.8295 12.6752 19.3408 13.1541 20.2468 13.1753C23.7401 13.257 27.2277 15.8218 27.3101 19.2837C27.3977 22.9597 24.0995 26.3597 20.4099 26.3597C19.9826 26.3597 19.5654 26.3193 19.1609 26.2421V32.2161C19.5722 32.2548 19.9885 32.2749 20.4099 32.2749C27.562 32.2749 33.36 26.5292 33.36 19.4414C33.3601 12.3602 30.8035 6.344 18.0803 6.57822Z" fill="url(#paint4_linear)"/>
<path d="M33.36 19.4415C33.36 19.4139 33.3592 19.3865 33.359 19.3589H27.389C27.4343 23.0005 24.0741 26.3597 20.4099 26.3597C19.9826 26.3597 19.5654 26.3193 19.1609 26.2421V32.2161C19.5722 32.2548 19.9885 32.2749 20.4099 32.2749C27.562 32.275 33.36 26.5292 33.36 19.4415Z" fill="url(#paint5_linear)"/>
<path d="M18.2773 10.911L18.3167 11.6527C18.3167 11.6527 18.5377 12.4025 18.75 12.5895C19.459 13.2141 19.7361 13.1665 20.5619 13.2141C24.1071 13.4184 26.9113 15.8216 26.9938 19.2834C27.0813 22.9594 24.0995 25.9676 20.4099 25.9676C19.9826 25.9676 19.5654 25.9272 19.1609 25.85V29.0825C19.5696 29.1338 19.9868 29.1606 20.4099 29.1606C25.8729 29.1606 30.2931 24.7338 30.2168 19.3026C30.1432 14.0678 26.9826 9.93509 18.1985 9.93509C18.1985 9.93509 18.2379 10.6768 18.2773 10.911Z" fill="url(#paint6_linear)"/>
<path d="M30.2168 19.3587H26.9936C27.0388 23.0003 24.0741 25.9676 20.4099 25.9676C19.9826 25.9676 19.5654 25.9272 19.1609 25.85V29.0825C19.5695 29.1338 19.9867 29.1606 20.4099 29.1606C25.8541 29.1606 30.262 24.7642 30.2168 19.3587Z" fill="url(#paint7_linear)"/>
<path d="M0 31.2652L0 33.4146C0 34.3466 0.762351 35.1021 1.70281 35.1021H2.0864C2.89731 35.1021 3.70372 34.9822 4.47896 34.7464C5.2542 34.5106 6.06061 34.3907 6.87152 34.3907H10.9028V30.2892H6.87152C6.06061 30.2892 5.2542 30.1693 4.47896 29.9335C3.70372 29.6977 2.89731 29.5778 2.0864 29.5778H1.70281C0.762351 29.5777 0 30.3333 0 31.2652Z" fill="url(#paint8_linear)"/>
<path d="M9.53259 38.8804H20.0141C20.2296 38.8804 20.4043 38.7316 20.4043 38.548V36.987C20.4043 36.8518 20.3083 36.7301 20.1614 36.6792L19.4011 36.4154C19.069 36.3002 19.0799 35.8964 19.418 35.7944L20.1446 35.575C20.3004 35.528 20.4044 35.4025 20.4044 35.2618V31.7167C20.4044 31.5899 20.3197 31.4741 20.1859 31.4183L19.5239 31.1419C19.2914 31.0448 19.2323 30.7852 19.4056 30.6212C19.5591 30.4759 19.533 30.2497 19.3492 30.1327L19.1051 29.9772C18.8425 29.81 18.9244 29.4583 19.242 29.3891L20.111 29.1996C20.2836 29.162 20.4044 29.0295 20.4044 28.8777V26.0966C20.4044 25.9131 20.2297 25.7643 20.0142 25.7643H9.53259L9.53259 38.8804Z" fill="url(#paint9_linear)"/>
<path d="M11.0356 38.8804L19.9254 31.3095L19.5239 31.1419C19.2914 31.0448 19.2323 30.7852 19.4056 30.6212C19.5591 30.476 19.533 30.2498 19.3492 30.1327L19.1051 29.9772C18.8425 29.81 18.9244 29.4583 19.242 29.3891L20.1109 29.1996C20.2836 29.1619 20.4044 29.0295 20.4044 28.8777V26.0966C20.4044 25.9131 20.2297 25.7643 20.0142 25.7643H9.53259L9.53259 38.8804H11.0356Z" fill="url(#paint10_linear)"/>
<path d="M9.21741 27.2477L9.21741 37.4751H20.4044V37.0222C20.4044 36.8871 20.3055 36.7656 20.1543 36.7147L19.372 36.4511C19.0303 36.336 19.0414 35.9326 19.3893 35.8306L20.137 35.6114C20.2973 35.5644 20.4044 35.439 20.4044 35.2984V31.7564C20.4044 31.6296 20.3172 31.514 20.1795 31.4582L19.4984 31.182C19.259 31.085 19.1983 30.8256 19.3766 30.6617C19.5345 30.5166 19.5077 30.2906 19.3186 30.1737L19.0674 30.0183C18.7972 29.8512 18.8814 29.4998 19.2082 29.4306L20.1024 29.2413C20.2801 29.2037 20.4044 29.0713 20.4044 28.9197V27.2478H9.21741V27.2477Z" fill="url(#paint11_linear)"/>
<path d="M8.58716 29.7458V34.8984H20.4044V31.7147C20.4044 31.5875 20.3123 31.4714 20.1669 31.4154L19.4473 31.1382C19.1945 31.0409 19.1303 30.7805 19.3187 30.616C19.4855 30.4704 19.4572 30.2435 19.2574 30.1261L18.992 29.9702C18.892 29.9114 18.8389 29.8298 18.8257 29.7457L8.58716 29.7458Z" fill="url(#paint12_linear)"/>
<path d="M12.2895 25.714L10.0446 32.049L12.2895 38.9657C12.2895 39.5372 11.822 40.0005 11.2454 40.0005H10.5508C9.97418 40.0005 9.50668 39.5372 9.50668 38.9657L7.48425 32.049L9.50668 25.714C9.50668 25.1425 9.97418 24.6792 10.5508 24.6792H11.2454C11.822 24.6792 12.2895 25.1425 12.2895 25.714Z" fill="url(#paint13_linear)"/>
<defs>
<linearGradient id="paint0_linear" x1="14.9561" y1="24.8459" x2="38.6374" y2="0.949408" gradientUnits="userSpaceOnUse">
<stop stop-color="#AB3558"/>
<stop offset="1" stop-color="#AB4172"/>
</linearGradient>
<linearGradient id="paint1_linear" x1="24.0362" y1="29.0473" x2="16.37" y2="32.3464" gradientUnits="userSpaceOnUse">
<stop stop-color="#843561" stop-opacity="0"/>
<stop offset="1" stop-color="#3A2F4D"/>
</linearGradient>
<linearGradient id="paint2_linear" x1="15.7898" y1="24.0087" x2="35.6004" y2="4.01815" gradientUnits="userSpaceOnUse">
<stop stop-color="#FFE4F6"/>
<stop offset="1" stop-color="#FFBDB1"/>
</linearGradient>
<linearGradient id="paint3_linear" x1="27.2711" y1="26.6071" x2="15.1544" y2="32.0666" gradientUnits="userSpaceOnUse">
<stop stop-color="#FFE4F6" stop-opacity="0"/>
<stop offset="1" stop-color="#9350B9"/>
</linearGradient>
<linearGradient id="paint4_linear" x1="15.1423" y1="24.6615" x2="29.4303" y2="10.2437" gradientUnits="userSpaceOnUse">
<stop stop-color="#B7A0BB"/>
<stop offset="1" stop-color="#6F7EA6"/>
</linearGradient>
<linearGradient id="paint5_linear" x1="27.3712" y1="24.8399" x2="17.4669" y2="30.1494" gradientUnits="userSpaceOnUse">
<stop stop-color="#543B5A" stop-opacity="0"/>
<stop offset="1" stop-color="#543B5A"/>
</linearGradient>
<linearGradient id="paint6_linear" x1="16.3001" y1="23.5139" x2="27.2338" y2="12.4809" gradientUnits="userSpaceOnUse">
<stop stop-color="#C1D7FF"/>
<stop offset="1" stop-color="#A1A8FF"/>
</linearGradient>
<linearGradient id="paint7_linear" x1="25.9442" y1="23.7297" x2="18.8543" y2="27.8747" gradientUnits="userSpaceOnUse">
<stop stop-color="#8DB0FF" stop-opacity="0"/>
<stop offset="1" stop-color="#54619E"/>
</linearGradient>
<linearGradient id="paint8_linear" x1="5.45138" y1="35.0207" x2="5.45138" y2="28.074" gradientUnits="userSpaceOnUse">
<stop stop-color="#97929C"/>
<stop offset="1" stop-color="#47404F"/>
</linearGradient>
<linearGradient id="paint9_linear" x1="14.2264" y1="32.9837" x2="24.2634" y2="28.53" gradientUnits="userSpaceOnUse">
<stop stop-color="#FFF5F0"/>
<stop offset="1" stop-color="#633C2C"/>
</linearGradient>
<linearGradient id="paint10_linear" x1="14.0093" y1="32.3223" x2="7.70833" y2="32.3223" gradientUnits="userSpaceOnUse">
<stop stop-color="#FFF5F0" stop-opacity="0"/>
<stop offset="1" stop-color="#633C2C"/>
</linearGradient>
<linearGradient id="paint11_linear" x1="12.1057" y1="33.3765" x2="27.538" y2="24.9087" gradientUnits="userSpaceOnUse">
<stop stop-color="#FFF5F0" stop-opacity="0"/>
<stop offset="1" stop-color="#E3CABF"/>
</linearGradient>
<linearGradient id="paint12_linear" x1="16.2289" y1="33.4799" x2="25.099" y2="40.0741" gradientUnits="userSpaceOnUse">
<stop stop-color="#FFF5F0" stop-opacity="0.29"/>
<stop offset="1" stop-color="#633C2C"/>
</linearGradient>
<linearGradient id="paint13_linear" x1="9.42719" y1="32.3398" x2="11.8304" y2="32.3398" gradientUnits="userSpaceOnUse">
<stop stop-color="#97929C"/>
<stop offset="1" stop-color="#47404F"/>
</linearGradient>
</defs>
</svg>
